<?xml version="1.0" encoding="utf-8"?>
<!-- Generator: Adobe Illustrator 25.3.1, SVG Export Plug-In . SVG Version: 6.00 Build 0)  -->
<svg version="1.1" id="Layer_1" xmlns="http://www.w3.org/2000/svg" xmlns:xlink="http://www.w3.org/1999/xlink" x="0px" y="0px"
	 viewBox="0 0 94.9 37.1" style="enable-background:new 0 0 94.9 37.1;" xml:space="preserve">
<path d="M19.6,8.2c0.1,0,0.2-0.1,0.3-0.1c0,5.4-0.5,10.9-1.5,16.2c-0.3,1.3,0.4,2.7,1.7,3.1c1.2,0.3,2.8-0.4,3.1-1.7
	c1.2-6.2,1.8-12.5,1.7-18.8c4.3-1,8.7-1.6,13.1-1.8c3.2-0.1,3.2-5.1,0-5c-5.7,0.3-11.3,1.1-16.8,2.5c-2.6,0.7-5.2,1.6-7.8,2.4
	C12.2,5.4,11,5.8,9.7,6.1c-0.7,0.2-1.3,0.3-2,0.4c-0.2,0-0.4,0-0.6,0.1C6.4,6,5.5,5.8,4.7,6C3.3,6.4,2.8,7.8,3,9.1
	c0.5,3.6,5.6,2.4,7.8,1.9C13.8,10.2,16.6,9,19.6,8.2z M6.7,6.7C6.6,6.7,6.6,6.7,6.7,6.7L6.7,6.7z"/>
<path d="M27.7,28.9c-1,0.9-2.3,2-3.4,2.4c-1.3,0.5-2.6,0.4-4-0.2c-1.3-0.6-2.4-1.5-3.4-2.6c-1.1-1.2-2-2.5-2.9-3.9
	c-0.7-1.2-2.2-1.6-3.4-0.9c-1.2,0.7-1.6,2.3-0.9,3.4c2.2,3.7,5.2,7.3,9.4,8.9c2,0.8,4.4,0.9,6.5,0.1c2.2-0.8,3.9-2.1,5.6-3.6
	c1-0.9,0.9-2.6,0-3.5C30.2,27.9,28.7,28,27.7,28.9z"/>
<path d="M39.1,17.3c0.1-1.4-0.7-2.5-2.1-2.8c-0.8-0.2-1.7-0.4-2.5-0.6c0.9-0.5,1.7-1.1,2.6-1.6c1.1-0.7,1.3-2.5,0.5-3.5
	c-0.9-1.1-2.3-1.3-3.5-0.5c-2.4,1.5-4.8,3-7.2,4.5c-1.6,1-1.2,3.7,0.5,4.3c2.9,1.1,5.9,1.6,8.9,2.3C37.6,19.7,39,18.6,39.1,17.3z"/>
<path d="M74.5,15.7c0.2-1.5,0-3-0.9-4.2C71.9,9,69,8,66.1,8.4c-0.4,0-0.9,0.1-1.3,0.2c0.3-2.2-1.6-3.7-3.7-2.8c-1.3,0.6-2,1.7-2.5,3
	c-0.3,0.9,0.1,1.8,0.7,2.5c0,0,0,0.1,0,0.1c-0.3,0.5-0.6,1-0.7,1.6c-0.1,0.6-0.1,1.1,0.1,1.7c-0.3,1.8-0.6,3.5-0.9,5.3
	c-0.2-0.3-0.4-0.5-0.7-0.7c0.1-1.3,0.2-2.5,0.3-3.8c0.2-2.4,0.2-6.5-2.7-7.4c-1.6-0.5-2.9,0.4-4,1.6c-0.4-1.2-1.1-2.2-2.4-2.6
	c-1.4-0.4-2.6,0.3-3.6,1.2C44.6,8.1,44.4,8,44.2,8c-1.2-0.3-2.9,0.4-3.1,1.7c-0.3,2.5-0.7,4.9-1,7.4c-0.7,3.1-1,6.3-1.3,9.4
	c-0.1,1.2,1,2.3,2.2,2.5c1.1,0.1,2.6-0.5,2.7-1.8c0.4-2.8,0.8-5.5,1.1-8.3c0.1-0.4,0.1-0.7,0.2-1.1c0.4-1.4,0.8-2.6,1.3-3.7
	c0-0.1,0.1-0.1,0.1-0.2c0,0.2,0,0.4,0,0.6c0.1,1.7-0.1,3.1-0.5,4.7c-0.2,1.3,0.4,2.7,1.7,3.1c1.3,0.4,2.8-0.4,3.1-1.7
	c0.1-0.4,0.2-0.8,0.3-1.2c0.3-1.1,0.6-2.1,1.1-3.1c0,0.1,0,0.3,0,0.4c-0.2,2.1-0.3,4.2-0.1,6.3c0.2,2.2,2.6,3.3,4.3,1.8
	c0.3-0.2,0.5-0.5,0.7-0.8c-0.6,3.3-1.1,6.7-1.7,10c-0.2,1.3,0.3,2.7,1.7,3.1c1.2,0.3,2.9-0.4,3.1-1.7c0.6-3.6,1.2-7.2,1.8-10.8
	c0.2,0,0.4,0,0.5,0c1.3-0.1,2.5-0.3,3.7-0.8c2.3-0.9,4.5-2.2,6.1-4.2C73.4,18.4,74.3,17.1,74.5,15.7z M65.9,18.5
	c-0.2,0.1-0.4,0.2-0.6,0.3c0,0,0,0,0,0c-0.1,0-0.2,0.1-0.2,0.1c-0.4,0.2-0.9,0.3-1.3,0.4c-0.2,0.1-0.4,0.1-0.7,0.1c0,0,0,0-0.1,0
	c0.3-1.8,0.6-3.7,0.9-5.5c0.2,0,0.3-0.1,0.5-0.1c0.5-0.1,0.9-0.2,1.4-0.3c0,0,0.8-0.1,1.3-0.1c0.4,0,1.1,0,1.4,0.2s0.7,0.3,1,0.6
	s0.4,0.4,0.3,0.8c-0.1,0.3-0.6,1.1-0.6,1.1s-1.1,1.2-1.6,1.6C66.9,17.8,65.9,18.5,65.9,18.5z"/>
<path d="M93.4,17.1c-0.6-1.9-1.3-3.9-2.4-5.6c-1.1-1.6-2.5-3-4.2-3.9c-3.7-2.1-8.2-2.1-12-0.2c-1.2,0.6-1.6,2.3-0.9,3.4
	c0.8,1.2,2.2,1.5,3.4,0.9c0,0,0.3-0.2,0.4-0.2c0.1,0,0.3-0.1,0.3-0.1c0.4-0.1,0.7-0.2,1.1-0.3c0,0,0.3-0.1,0.4-0.1
	c0.1,0,0.3,0,0.3,0c0.4,0,0.8,0,1.2,0c0.2,0,0.4,0,0.6,0c0,0,0,0,0,0c0,0,0,0,0.1,0c0.4,0.1,0.7,0.2,1.1,0.3
	c0.2,0.1,0.4,0.1,0.5,0.2c0,0,0,0,0.1,0c0,0,0.1,0,0.1,0c0.3,0.2,0.6,0.3,0.9,0.5c0.2,0.1,0.4,0.2,0.6,0.4c-2.5-0.4-5-0.1-7.3,1.2
	c-2.2,1.3-3.9,3.5-4.2,6.2c-0.1,1.4,0.3,2.8,1.3,3.8c1.1,1.1,2.7,1.4,4.2,1.4c3.1,0,6-1.4,8.5-3.2c0.8-0.6,1.3-1.5,1.2-2.5
	c0.3,0.2,0.7,0.4,1,0.6c0.8,0.6,2.1,0.4,2.8-0.2C93.2,19.1,93.7,18,93.4,17.1z M78.3,19.9C78.3,20,78.4,20,78.3,19.9
	C78.4,20,78.4,20,78.3,19.9C78.3,19.9,78.3,19.9,78.3,19.9z M82.6,18.9c-0.1,0-0.6,0.3-0.6,0.3c-0.5,0.2-1.1,0.4-1.6,0.5
	c-0.1,0-0.7,0.1-0.7,0.1c-0.2,0-0.4,0-0.6,0c-0.1,0-0.3,0-0.5,0c0,0,0,0,0,0c0-0.1,0.1-0.3,0.1-0.3c0.1-0.2,0.2-0.3,0.3-0.5
	c0,0,0,0,0,0c0.1-0.1,0.1-0.1,0.2-0.2c0.2-0.2,0.3-0.3,0.5-0.5c0,0,0,0,0,0c0.1-0.1,0.2-0.2,0.3-0.2c0.2-0.1,0.4-0.2,0.6-0.3
	c0.1,0,0.1-0.1,0.2-0.1c0,0,0.1,0,0.2-0.1c0.4-0.1,0.8-0.2,1.3-0.3c0.1,0,0.5,0,0.6-0.1c0.3,0,0.5,0,0.8,0c0.1,0,0.2,0,0.3,0
	c0,0,0.1,0,0.1,0c0.3,0.1,0.6,0.1,0.8,0.2c-0.5,0.4-1.1,0.8-1.7,1.1C83,18.6,82.8,18.8,82.6,18.9z"/>
</svg>
