<svg version="1.1" xmlns="http://www.w3.org/2000/svg" viewBox="0 0 40 40">
  <path fill="black" d="M19.6,8.2c0.1,0,0.2-0.1,0.3-0.1c0,5.4-0.5,10.9-1.5,16.2c-0.3,1.3,0.4,2.7,1.7,3.1c1.2,0.3,2.8-0.4,3.1-1.7
	c1.2-6.2,1.8-12.5,1.7-18.8c4.3-1,8.7-1.6,13.1-1.8c3.2-0.1,3.2-5.1,0-5c-5.7,0.3-11.3,1.1-16.8,2.5c-2.6,0.7-5.2,1.6-7.8,2.4
	C12.2,5.4,11,5.8,9.7,6.1c-0.7,0.2-1.3,0.3-2,0.4c-0.2,0-0.4,0-0.6,0.1C6.4,6,5.5,5.8,4.7,6C3.3,6.4,2.8,7.8,3,9.1
	c0.5,3.6,5.6,2.4,7.8,1.9C13.8,10.2,16.6,9,19.6,8.2z"/>
  <path fill="black" d="M27.7,28.9c-1,0.9-2.3,2-3.4,2.4c-1.3,0.5-2.6,0.4-4-0.2c-1.3-0.6-2.4-1.5-3.4-2.6c-1.1-1.2-2-2.5-2.9-3.9
	c-0.7-1.2-2.2-1.6-3.4-0.9c-1.2,0.7-1.6,2.3-0.9,3.4c2.2,3.7,5.2,7.3,9.4,8.9c2,0.8,4.4,0.9,6.5,0.1c2.2-0.8,3.9-2.1,5.6-3.6
	c1-0.9,0.9-2.6,0-3.5C30.2,27.9,28.7,28,27.7,28.9z"/>
</svg>
